<svg width="117" height="29" viewBox="0 0 117 29" fill="none" xmlns="http://www.w3.org/2000/svg">
<path d="M23.1794 4.68899L27.8837 0H29.6209L45.1194 19.5723V0H51.5999V11.9716L44.9031 28.7213L29.8161 9.2843L29.6209 29H23.1794V4.68899Z" fill="#1B18BE"/>
<path d="M21.9594 21.45V29H19.988L10.0721 16.2744L6.63664 19.7157V29H0V0H6.63664V12.0445L18.6607 0H26.3904L14.5225 11.8294L21.9594 21.45Z" fill="#1B18BE"/>
<path fill-rule="evenodd" clip-rule="evenodd" d="M70.1483 13.6973V29H69.2406L66.7811 23.0136H55.1475L52.688 29H46.0514L57.646 0H64.9853L70.1483 13.6973ZM60.9643 8.85414L57.3337 17.6724H64.595L60.9643 8.85414Z" fill="#1B18BE"/>
<path d="M71.3682 0V29H78.3562V18.5686C78.3562 18.5686 77.9268 18.5686 84.6025 18.5686C91.4734 18.5686 95.6505 14.1595 95.6505 9.35599C95.6505 4.55253 91.4734 0 84.5634 0H71.3682ZM85.11 12.9407H78.3562V5.62794H85.11C87.5694 5.62794 89.5214 7.09765 89.5214 9.35599C89.5214 11.5785 87.5694 12.9407 85.11 12.9407Z" fill="#1B18BE"/>
<path fill-rule="evenodd" clip-rule="evenodd" d="M92.7177 16.9685C95.3738 15.1309 96.8705 12.3239 96.8705 9.35599C96.8705 6.39476 95.3785 3.5399 92.7177 1.66006V0H105.913C112.823 0 117 4.55253 117 9.35599C117 14.1595 112.823 18.5686 105.952 18.5686H99.7057V29H92.7177V16.9685ZM99.7057 12.9407H106.459C108.919 12.9407 110.871 11.5785 110.871 9.35599C110.871 7.09765 108.919 5.62794 106.459 5.62794H99.7057V12.9407Z" fill="#1B18BE"/>
</svg>
